<?xml version="1.0" encoding="utf-8"?>
<!-- Generator: Adobe Illustrator 28.0.0, SVG Export Plug-In . SVG Version: 6.00 Build 0)  -->
<svg version="1.1" id="Layer_1" xmlns="http://www.w3.org/2000/svg" xmlns:xlink="http://www.w3.org/1999/xlink" x="0px" y="0px"
	 viewBox="0 0 2628 1349" style="enable-background:new 0 0 2628 1349;" xml:space="preserve">
<g id="Layer_2_00000140709251315342150810000006531613854709865646_">
	<g>
		<path d="M721.2,225.4c23.6,108.7-15.7,221.9-91.3,301.8c-101,106.9-245.1,151.6-388.4,162.2c5.6,126.3,38.6,492.3,60,617.4
			c4.9,28.6-40.1,41.8-59.8,41.8c-27.6,0-54.9-13.2-59.8-41.8c-22.9-133.7-55.2-509.5-61.1-644.9c-6.6-152.1-9.3-305.8-1.7-457.9
			c2.8-54.7,116.3-54.7,116.4,0c0.3,133.3-0.7,267,3,400.5c119.3-9.9,239-53,312.7-152c48.4-65,69.9-153.8,45.2-232
			C566.9,127.3,470.4,55,373.8,38.8C274.4,22.2,162.6,59.9,99.7,139.2c-89,111.9-53.2,263.2-2.2,383.1c8.7,20.4-34,25.6-42.1,8.1
			C-10.5,388.2-37.5,205.7,90.1,88.9C127.9,54.3,174,30,223.2,16.1c26.3-7.4,52.8-11.2,80.1-13C348,0.2,397.7-1.7,442,4.4
			c76.9,10.5,155.1,33.2,210.6,91C686.8,131,710.7,177.2,721.2,225.4z"/>
	</g>
	<g>
		<path d="M892.6,1092.1c-9.2,57.1-26.5,112-54.6,162.8c-19,34.3-47.5,80-90.8,84.4c-94.1,9.5-107.4-103.7-104.2-171.4
			c2.4-50.1,0.7-102,5.4-151.8c1.9-19.5,16.4-73.4-18.7-49.2c-21.8,15-32.9,50.2-40.7,73.9c-10.8,32.6-18,66.5-23.8,100.3
			c-9.3,54.9-14.4,110.3-19.4,165.8c0.3,1.9,0.5,3.8,0.7,5.8c6.2,45.6-94.1,47.2-100.5,0c-25-185.5-17.9-374.8,2.3-560.5
			c5.2-47.3,105-45.7,100,0c-12.1,111.3-19.3,223.9-17.8,336.2c10.2-48,24.9-100.1,56.5-136.3c40.5-46.4,100.3-47.6,137.1,6.2
			c27.7,40.4,25.1,86.9,22.8,133.6c-2.3,46.3-6,92.5-7.6,138.8c-0.5,13.2-9,50.1-0.3,60.6c19.7,23.7,55.5-45,61.3-56
			c24.6-46,40.4-96.2,51.7-147C855.6,1072.3,895.4,1074.8,892.6,1092.1z"/>
		<path d="M1260.9,1100c-31.2,21.8-67.9,42.8-106.9,58.3c-3.2,56-19.5,112-63.1,149.9c-35.3,30.7-86,37.1-130.6,28.1
			c-127.8-25.7-139.4-159.5-114.7-265.2c3.3-14,14.7-23,29-27.4c1.6-50.3,29.4-100,82.1-119.9c124.2-47,194.4,102.6,197.7,203.1
			c29.8-13.3,57.7-29.4,81.4-44.4C1248.8,1074.2,1279,1087.4,1260.9,1100z M1069.7,989.1c-43.5-56.7-116.9-52.6-141.6,18.1
			c-4.2,11.9-6.4,24.3-7,36.7c23.5,6.7,41.8,23.5,35.8,48.7c-2.1,9-4,20.3-5.4,33c7.1,6.8,15.5,12.5,25.2,17
			c41.4,19,88.7,15.1,134.5,0.8C1113.1,1089.3,1102.8,1032.3,1069.7,989.1z M1109,1173.4c-53.8,14.4-109.6,15.8-159.7-6.4
			c0,58.6,13.6,123.8,61,132.2C1075.9,1310.8,1102.9,1224.3,1109,1173.4z"/>
		<path d="M1630.8,1100c-31.2,21.8-67.9,42.8-106.9,58.3c-3.2,56-19.5,112-63.1,149.9c-35.3,30.7-86,37.1-130.6,28.1
			c-127.8-25.7-139.4-159.5-114.7-265.2c3.3-14,14.7-23,29-27.4c1.6-50.3,29.4-100,82.1-119.9c124.2-47,194.4,102.6,197.7,203.1
			c29.8-13.3,57.7-29.4,81.4-44.4C1618.7,1074.2,1648.9,1087.4,1630.8,1100z M1439.6,989.1c-43.5-56.7-116.9-52.6-141.6,18.1
			c-4.2,11.9-6.4,24.3-7,36.7c23.5,6.7,41.8,23.5,35.8,48.7c-2.1,9-4,20.3-5.4,33c7.1,6.8,15.5,12.5,25.2,17
			c41.4,19,88.7,15.1,134.5,0.8C1483,1089.3,1472.7,1032.3,1439.6,989.1z M1478.9,1173.4c-53.8,14.4-109.6,15.8-159.7-6.4
			c0,58.6,13.6,123.8,61,132.2C1445.8,1310.8,1472.7,1224.3,1478.9,1173.4z"/>
		<path d="M2089.1,1091.1c-7.2,49.2-15.8,98.6-29.8,146.4c-9.4,32.2-20.5,71.7-51.4,89.5c-70.8,40.8-152.8,8.5-174-70.2
			c-4-14.9-7.2-29.9-9.8-45.1c-11.7,47.1-31.7,97-76.1,118.1c-83.4,39.8-153.1-52.9-166.7-126.6c-15.7-85.3-6.3-188.7,66.5-245.1
			c36.1-28,75.7-48,120.8-29.5c18.8,7.7,34.1,19.9,46.6,34.6c0.1-0.4,0.1-0.8,0.2-1.2s0.2-0.8,0.3-1.1
			c2.2-66.8,6.3-133.6,11.1-200.2c4.2-57.9,126.4-56.5,122.3,0c-9.7,134-20,270.3-8.3,404.5c2.3,26.4,4.6,53.1,11.3,78.8
			c3.7,14.2,10.8,50.7,19.6,55.3c26.1,13.6,44.8-59.8,50.4-80.1c11.8-42,19.5-85.1,26.9-128.1
			C2052.3,1072.6,2091.8,1072.9,2089.1,1091.1z M1808.6,1018c-9.7-22.7-27.7-58.4-53.2-61.8c-18.1-2.4-42.9,17.6-51.6,32.3
			c-17.4,29.3-22.4,74.8-25.8,108.3c-4.3,42.4,0.9,83.3,4.2,125.5c1.9,24,13.4,104.7,50.8,76.8c47.9-35.6,57.9-118.5,65.6-172.7
			C1803.6,1090.5,1805.4,1054.2,1808.6,1018z"/>
		<path d="M2289.7,1091.4c-12,75.3-23.7,274.9-144.7,248.5c-81-17.6-102.4-101.2-105.5-172.4c-3.1-70.1,1-141.5,6.1-211.4
			c3.4-47.6,103.8-46.4,100.5,0c-3.9,53.6-5.9,107.4-6.5,161.1c-0.6,52.1-2.4,114.5,16,164.1c24.4,65.5,63-41.6,68.9-63.8
			c11-41.4,16.8-83.9,23.9-126.1C2251.5,1072.1,2292.6,1072.8,2289.7,1091.4z M2051.4,855.4c-5.1-5.9-7.7-12.8-8-20.6
			c0.7-3.6,1.4-7.2,2.1-10.8c2.2-5.7,5.6-10.3,10.4-13.9c2.9-3.3,6.4-5.7,10.4-7.3c6-3.8,12.6-6.2,19.8-7.3c5.2-0.5,10.3-1,15.5-1.5
			c7.8-0.3,15.2,0.9,22.4,3.5c6.8,1.5,13,4.3,18.7,8.4c1.1,0.6,2.3,1.3,3.4,1.9c6.8,4.6,11.9,10.6,15.1,18.2
			c2.5,5.5,2.8,11,1.1,16.4c-0.5,5.8-2.8,10.9-7,15.3c-4.2,5.1-9.2,9-15.2,11.6c-6.1,3.8-12.8,6.3-20,7.4c-10.4,2-20.9,2-31.3,0
			c-4.7-1.4-9.4-2.8-14.1-4.2c-8.2-3.2-15.3-8.2-21.1-14.8C2053,857.1,2052.2,856.3,2051.4,855.4z"/>
		<path d="M2627.5,1095c-19.3,97.7-71.6,202.8-172.5,235.4c-50.8,16.4-86.9,10.3-134.1-13.1c-38.7-19.2-64.8-51-76.3-92.9
			c-22.9-83-8.2-188.2,57.4-248.3c34-31.2,85.3-63.3,133-55.6c43.7,7.1,74.7,32,66,79c-7.4,40.2-41.3,68.1-81.8,72.1
			c-27,2.7-45.9-6.1-62.8-19.7c-20.8,51.7-29.6,107.1-14.6,162.3c6.7,24.5,17.8,64.3,41.1,78c32.9,19.3,69.6,9.6,98.4-11.4
			c61.3-44.8,89.9-122.5,109.7-192.9C2595.7,1071.6,2631.2,1076.2,2627.5,1095z M2377.1,1007.7c0,0.5,0.1,1,0.2,1.5
			c1.4,38.4,46.1,34.8,65.6,17.1c19.2-17.4,31.5-67.5-10.3-66.9C2407.6,959.9,2389.7,984.2,2377.1,1007.7z"/>
	</g>
	<g>
		<path d="M1052.7,804.4c-8.1,32.9-45.1,44.2-45.5,73.8c-2.8,13.9-42.8,13-41.4-3.6c2.1-26.1,19.7-24.3,29.3-46.5
			c8.2-19,14.5-27.7,0.1-45.5c-8.3-10.3-22.4-10-34.3-5.1c-6.1,2.5-12.2-8.7-6.1-14.1c7.5-6.7,46.3-14.7,61.1-10.6
			C1046.1,761.2,1055.9,791.4,1052.7,804.4z"/>
	</g>
	<g>
		<path d="M1192.2,914.3c15.8,19.3,28.2,32.3,21.6,56.3c-14.5,53.1-107.5,16.7-139.7,6c-7.9-2.6,0.2-19,8.5-16.3
			c18.1,5.9,27.4,9.8,46,13.9c10,2.2,39.1,0.3,17.9-22.4c-6.9-7.4-14.9-15.4-27-24.1c-16.7-12.2,21.8-45.5,41.3-37.1
			C1161.4,890.8,1177.7,898.6,1192.2,914.3z"/>
	</g>
</g>
</svg>
