<?xml version="1.0" encoding="utf-8"?>
<!-- Generator: Adobe Illustrator 28.0.0, SVG Export Plug-In . SVG Version: 6.00 Build 0)  -->
<svg version="1.1" xmlns="http://www.w3.org/2000/svg" xmlns:xlink="http://www.w3.org/1999/xlink" x="0px" y="0px"
	 viewBox="0 0 3000 1500" style="enable-background:new 0 0 3000 1500;" xml:space="preserve">
<style type="text/css">
	.st0{display:none;}
	.st1{display:inline;}
	.st2{font-family:'PaytoneOne-Regular';}
	.st3{font-size:280px;}
	.st4{font-family:'VarsityRegular';}
	.st5{font-size:900px;}
</style>
<g id="Layer_1" class="st0">
	<text transform="matrix(1 0 0 1 162.2869 1449.2178)" class="st1 st2 st3">Phởodie</text>
	<text transform="matrix(1 0 0 1 405.5532 856.7964)" class="st1 st4 st5">P</text>
	<text transform="matrix(1 0 0 1 405.5532 856.7964)" class="st1 st4 st5">P</text>
	<text transform="matrix(1 0 0 1 915.5532 1276.7964)" class="st1 st4 st5">hoodie</text>
</g>
<g id="Layer_2">
	<g class="st0">
		<path class="st1" d="M177.7,1449.2v-192.9h65.2c31.7,0,55.7,5.2,71.8,15.5c16.1,10.4,24.2,25.6,24.2,45.8c0,14-3.5,25.9-10.5,35.7
			c-7,9.8-16.8,17.3-29.5,22.4c-12.7,5.1-27.6,7.7-44.8,7.7h-14.6v65.8H177.7z M251.6,1344.5c9.9,0,17.5-2.1,23-6.2
			c5.4-4.1,8.1-10.3,8.1-18.5c0-7.7-2.6-13.4-7.8-17.2c-5.2-3.8-12.8-5.7-22.7-5.7h-12.6v47.6H251.6z"/>
		<path class="st1" d="M360.2,1449.2v-184.5l59.1-8.7v81.8c3.9-9.7,10.1-17.3,18.5-22.7c8.4-5.4,18.5-8.1,30.2-8.1
			c18.3,0,32.5,6.3,42.6,18.9c10.1,12.6,15.1,30.4,15.1,53.3v70h-59.1v-73.1c0-16.6-6.7-24.9-20.2-24.9c-8,0-14.6,2.9-19.6,8.8
			s-7.6,13.8-7.6,23.7v65.5H360.2z"/>
		<path class="st1" d="M626,1451.5c-15.9,0-29.9-3.1-42-9.2c-12.1-6.2-21.6-14.7-28.4-25.6c-6.8-10.9-10.2-23.5-10.2-37.7
			c0-14.6,3.5-27.2,10.5-37.9c7-10.7,16.6-19.1,28.7-25.1c12.1-6,26-9,41.7-9c7.7,0,13.8,0.5,18.3,1.4c4.6,0.9,9.3,1.4,14.1,1.4
			c5.2,0,9.3-0.5,12.3-1.5c3-1,5.1-3.5,6.4-7.3c1.3-3.8,2-9.8,2-18.1h32.8c0,14.9-1.7,26.3-5.2,34.2c-3.5,7.8-9.5,12.9-18.1,15.1
			c6.3,7.3,10.9,14.7,13.7,22.4c2.8,7.7,4.2,15.8,4.2,24.4c0,14.4-3.4,27-10.2,37.9c-6.8,10.9-16.3,19.4-28.4,25.5
			C656.1,1448.4,642,1451.5,626,1451.5z M609.2,1290.7c-0.2-1.5-0.4-2.9-0.6-4.3c-0.2-1.4-0.3-3.2-0.3-5.5c0-4.5,1-8,2.9-10.6
			c2-2.6,4.2-4.9,6.6-6.9c2.4-2,4.6-4,6.6-6c2-2.1,2.9-4.6,2.9-7.6c0-2.1-0.9-3.7-2.7-5c-1.8-1.3-4.7-2-8.8-2c-3,0-6.1,0.4-9.2,1.1
			c-3.2,0.7-6.6,1.8-10.4,3.1l-2.2-23.2c4.9-1.7,10.3-3,16.2-4.1c6-1,12-1.5,18.2-1.5c13.6,0,23.2,2.4,28.8,7.1
			c5.6,4.8,8.4,10.8,8.4,18.1c0,6-1.1,10.8-3.4,14.4c-2.2,3.6-4.9,6.7-7.8,9.2c-3,2.5-5.6,5.2-7.8,8c-2.2,2.8-3.4,6.4-3.4,10.9v4.8
			H609.2z M626.5,1409.5c7.7,0,14-2.8,18.9-8.5c4.9-5.7,7.4-13,7.4-22s-2.4-16.3-7.3-22c-4.9-5.7-11-8.5-18.5-8.5
			c-8,0-14.5,2.8-19.5,8.5c-4.9,5.7-7.4,13-7.4,22s2.5,16.3,7.4,22C612.6,1406.6,618.9,1409.5,626.5,1409.5z"/>
		<path class="st1" d="M801.5,1451.5c-15.9,0-29.9-3.1-42-9.2c-12.1-6.2-21.6-14.7-28.4-25.6c-6.8-10.9-10.2-23.5-10.2-37.7
			c0-14.6,3.5-27.2,10.5-37.9c7-10.7,16.6-19.1,28.7-25.1c12.1-6,26-9,41.7-9c16.1,0,30.1,3,42.3,9.1c12.1,6.1,21.6,14.5,28.3,25.2
			c6.7,10.7,10.1,23.3,10.1,37.7c0,14.4-3.4,27-10.2,37.9c-6.8,10.9-16.3,19.4-28.4,25.5C831.7,1448.4,817.6,1451.5,801.5,1451.5z
			 M802.1,1409.5c7.7,0,14-2.8,18.9-8.5c4.9-5.7,7.4-13,7.4-22s-2.4-16.3-7.3-22c-4.9-5.7-11-8.5-18.5-8.5c-8,0-14.5,2.8-19.5,8.5
			c-4.9,5.7-7.4,13-7.4,22s2.5,16.3,7.4,22C788.1,1406.6,794.4,1409.5,802.1,1409.5z"/>
		<path class="st1" d="M965.3,1451.5c-12.9,0-24.5-3.1-35-9.4c-10.5-6.3-18.7-14.9-24.8-25.9c-6.1-11-9.1-23.6-9.1-37.8
			c0-14.2,3-26.6,9.1-37.2c6.1-10.6,14.3-19,24.8-25.1c10.5-6.1,22.1-9.1,35-9.1c9.1,0,18,2.5,26.5,7.4c8.5,4.9,14.8,12.9,18.9,23.9
			v-73.6l59.1-8.7v193.2h-58.5v-26c-4.5,9.1-10.5,16.1-17.9,21C985.9,1449,976.5,1451.5,965.3,1451.5z M983.5,1407.2
			c7.7,0,14.2-2.8,19.6-8.3c5.4-5.5,8.1-12.3,8.1-20.3c0-8-2.7-14.6-8.1-19.7c-5.4-5.1-11.9-7.7-19.6-7.7c-8,0-14.7,2.7-20.2,8.1
			c-5.4,5.4-8.1,12-8.1,19.9s2.7,14.5,8.1,19.9C968.8,1404.5,975.5,1407.2,983.5,1407.2z"/>
		<path class="st1" d="M1126.6,1293.5c-8.6,0-16-2.8-22.1-8.3c-6.2-5.5-9.2-12.3-9.2-20.3c0-5.6,1.5-10.5,4.5-14.7
			c3-4.2,6.9-7.5,11.8-9.9c4.9-2.4,9.9-3.6,15.1-3.6c5.8,0,11.1,1.3,15.8,3.9c4.8,2.6,8.6,6.1,11.5,10.4c2.9,4.3,4.3,9,4.3,14
			c0,5.6-1.5,10.5-4.6,14.8c-3.1,4.3-7,7.7-11.8,10.1C1137.1,1292.3,1132,1293.5,1126.6,1293.5z M1149.6,1451.5
			c-12.5,0-22.6-2.2-30.4-6.7c-7.7-4.5-13.4-10.5-16.9-18.2c-3.5-7.7-5.3-16.2-5.3-25.8v-91.8h59.1v83.7c0,4.3,1.3,7.6,3.8,9.9
			c2.5,2.3,5.6,3.5,9.1,3.5c3.7,0,7.6-1.1,11.5-3.4l3.1,38.9c-4.1,3.2-9.4,5.6-16,7.3C1160.9,1450.6,1155,1451.5,1149.6,1451.5z"/>
		<path class="st1" d="M1283.4,1412.3c5.4,0,11.2-0.6,17.2-1.7c6.1-1.1,12.3-3.2,18.6-6.2l6.7,36.1c-6.9,3.5-14.4,6.3-22.5,8.1
			c-8.1,1.9-17.4,2.8-27.9,2.8c-18.9,0-34.7-3.1-47.5-9.2c-12.8-6.2-22.4-14.7-29-25.5c-6.5-10.8-9.8-23.3-9.8-37.5
			c0-14.6,3.5-27.3,10.5-38.1c7-10.8,16.4-19.2,28.1-25.2c11.8-6,24.7-9,38.9-9c21.1,0,37.2,6.6,48.4,19.7s16.8,31.9,16.8,56.1
			l-83.4,10.6C1254.8,1406,1266.4,1412.3,1283.4,1412.3z M1244.2,1367.7l44-9.2c-0.7-6-2.8-10.4-6.2-13.3c-3.4-2.9-7.6-4.3-12.6-4.3
			c-7.5,0-13.4,2.6-17.8,7.7C1247.2,1353.7,1244.8,1360.1,1244.2,1367.7z"/>
	</g>
	<g>
		<path d="M891.7,279.7c23.6,108.7-15.7,221.9-91.3,301.8C699.4,688.4,555.3,733.1,412,743.7c5.6,126.3,38.6,492.3,60,617.4
			c4.9,28.6-40.1,41.8-59.8,41.8c-27.6,0-54.9-13.2-59.8-41.8c-22.9-133.7-55.2-509.5-61.1-644.9c-6.6-152.1-9.3-305.8-1.7-457.9
			c2.8-54.7,116.3-54.7,116.4,0c0.3,133.3-0.7,267,3,400.5c119.3-9.9,239-53,312.7-152c48.4-65,69.9-153.8,45.2-232
			c-29.5-93.2-126-165.5-222.6-181.7c-99.4-16.6-211.2,21.1-274.1,100.4C181.2,305.4,217,456.7,268,576.6c8.7,20.4-34,25.6-42.1,8.1
			C160,442.5,133,260,260.6,143.2c37.8-34.6,83.9-58.9,133.1-72.8c26.3-7.4,52.8-11.2,80.1-13c44.7-2.9,94.4-4.8,138.7,1.3
			c76.9,10.5,155.1,33.2,210.6,91C857.3,185.3,881.2,231.5,891.7,279.7z"/>
	</g>
	<g>
		<path d="M1063.1,1146.4c-9.2,57.1-26.5,112-54.6,162.8c-19,34.3-47.5,80-90.8,84.4c-94.1,9.5-107.4-103.7-104.2-171.4
			c2.4-50.1,0.7-102,5.4-151.8c1.9-19.5,16.4-73.4-18.7-49.2c-21.8,15-32.9,50.2-40.7,73.9c-10.8,32.6-18,66.5-23.8,100.3
			c-9.3,54.9-14.4,110.3-19.4,165.8c0.3,1.9,0.5,3.8,0.7,5.8c6.2,45.6-94.1,47.2-100.5,0c-25-185.5-17.9-374.8,2.3-560.5
			c5.2-47.3,105-45.7,100,0c-12.1,111.3-19.3,223.9-17.8,336.2c10.2-48,24.9-100.1,56.5-136.3c40.5-46.4,100.3-47.6,137.1,6.2
			c27.7,40.4,25.1,86.9,22.8,133.6c-2.3,46.3-6,92.5-7.6,138.8c-0.5,13.2-9,50.1-0.3,60.6c19.7,23.7,55.5-45,61.3-56
			c24.6-46,40.4-96.2,51.7-147C1026.1,1126.6,1065.9,1129.1,1063.1,1146.4z"/>
		<path d="M1431.4,1154.3c-31.2,21.8-67.9,42.8-106.9,58.3c-3.2,56-19.5,112-63.1,149.9c-35.3,30.7-86,37.1-130.6,28.1
			c-127.8-25.7-139.4-159.5-114.7-265.2c3.3-14,14.7-23,29-27.4c1.6-50.3,29.4-100,82.1-119.9c124.2-47,194.4,102.6,197.7,203.1
			c29.8-13.3,57.7-29.4,81.4-44.4C1419.3,1128.5,1449.5,1141.7,1431.4,1154.3z M1240.2,1043.4c-43.5-56.7-116.9-52.6-141.6,18.1
			c-4.2,11.9-6.4,24.3-7,36.7c23.5,6.7,41.8,23.5,35.8,48.7c-2.1,9-4,20.3-5.4,33c7.1,6.8,15.5,12.5,25.2,17
			c41.4,19,88.7,15.1,134.5,0.8C1283.6,1143.6,1273.3,1086.6,1240.2,1043.4z M1279.5,1227.7c-53.8,14.4-109.6,15.8-159.7-6.4
			c0,58.6,13.6,123.8,61,132.2C1246.4,1365.1,1273.4,1278.6,1279.5,1227.7z"/>
		<path d="M1801.3,1154.3c-31.2,21.8-67.9,42.8-106.9,58.3c-3.2,56-19.5,112-63.1,149.9c-35.3,30.7-86,37.1-130.6,28.1
			c-127.8-25.7-139.4-159.5-114.7-265.2c3.3-14,14.7-23,29-27.4c1.6-50.3,29.4-100,82.1-119.9c124.2-47,194.4,102.6,197.7,203.1
			c29.8-13.3,57.7-29.4,81.4-44.4C1789.2,1128.5,1819.4,1141.7,1801.3,1154.3z M1610.1,1043.4c-43.5-56.7-116.9-52.6-141.6,18.1
			c-4.2,11.9-6.4,24.3-7,36.7c23.5,6.7,41.8,23.5,35.8,48.7c-2.1,9-4,20.3-5.4,33c7.1,6.8,15.5,12.5,25.2,17
			c41.4,19,88.7,15.1,134.5,0.8C1653.5,1143.6,1643.2,1086.6,1610.1,1043.4z M1649.4,1227.7c-53.8,14.4-109.6,15.8-159.7-6.4
			c0,58.6,13.6,123.8,61,132.2C1616.3,1365.1,1643.2,1278.6,1649.4,1227.7z"/>
		<path d="M2259.6,1145.4c-7.2,49.2-15.8,98.6-29.8,146.4c-9.4,32.2-20.5,71.7-51.4,89.5c-70.8,40.8-152.8,8.5-174-70.2
			c-4-14.9-7.2-29.9-9.8-45.1c-11.7,47.1-31.7,97-76.1,118.1c-83.4,39.8-153.1-52.9-166.7-126.6c-15.7-85.3-6.3-188.7,66.5-245.1
			c36.1-28,75.7-48,120.8-29.5c18.8,7.7,34.1,19.9,46.6,34.6c0.1-0.4,0.1-0.8,0.2-1.2c0.1-0.4,0.2-0.8,0.3-1.1
			c2.2-66.8,6.3-133.6,11.1-200.2c4.2-57.9,126.4-56.5,122.3,0c-9.7,134-20,270.3-8.3,404.5c2.3,26.4,4.6,53.1,11.3,78.8
			c3.7,14.2,10.8,50.7,19.6,55.3c26.1,13.6,44.8-59.8,50.4-80.1c11.8-42,19.5-85.1,26.9-128.1
			C2222.8,1126.9,2262.3,1127.2,2259.6,1145.4z M1979.1,1072.3c-9.7-22.7-27.7-58.4-53.2-61.8c-18.1-2.4-42.9,17.6-51.6,32.3
			c-17.4,29.3-22.4,74.8-25.8,108.3c-4.3,42.4,0.9,83.3,4.2,125.5c1.9,24,13.4,104.7,50.8,76.8c47.9-35.6,57.9-118.5,65.6-172.7
			C1974.1,1144.8,1975.9,1108.5,1979.1,1072.3z"/>
		<path d="M2460.2,1145.7c-12,75.3-23.7,274.9-144.7,248.5c-81-17.6-102.4-101.2-105.5-172.4c-3.1-70.1,1-141.5,6.1-211.4
			c3.4-47.6,103.8-46.4,100.5,0c-3.9,53.6-5.9,107.4-6.5,161.1c-0.6,52.1-2.4,114.5,16,164.1c24.4,65.5,63-41.6,68.9-63.8
			c11-41.4,16.8-83.9,23.9-126.1C2422,1126.4,2463.1,1127.1,2460.2,1145.7z M2221.9,909.7c-5.1-5.9-7.7-12.8-8-20.6
			c0.7-3.6,1.4-7.2,2.1-10.8c2.2-5.7,5.6-10.3,10.4-13.9c2.9-3.3,6.4-5.7,10.4-7.3c6-3.8,12.6-6.2,19.8-7.3c5.2-0.5,10.3-1,15.5-1.5
			c7.8-0.3,15.2,0.9,22.4,3.5c6.8,1.5,13,4.3,18.7,8.4c1.1,0.6,2.3,1.3,3.4,1.9c6.8,4.6,11.9,10.6,15.1,18.2
			c2.5,5.5,2.8,11,1.1,16.4c-0.5,5.8-2.8,10.9-7,15.3c-4.2,5.1-9.2,9-15.2,11.6c-6.1,3.8-12.8,6.3-20,7.4c-10.4,2-20.9,2-31.3,0
			c-4.7-1.4-9.4-2.8-14.1-4.2c-8.2-3.2-15.3-8.2-21.1-14.8C2223.5,911.4,2222.7,910.6,2221.9,909.7z"/>
		<path d="M2798,1149.3c-19.3,97.7-71.6,202.8-172.5,235.4c-50.8,16.4-86.9,10.3-134.1-13.1c-38.7-19.2-64.8-51-76.3-92.9
			c-22.9-83-8.2-188.2,57.4-248.3c34-31.2,85.3-63.3,133-55.6c43.7,7.1,74.7,32,66,79c-7.4,40.2-41.3,68.1-81.8,72.1
			c-27,2.7-45.9-6.1-62.8-19.7c-20.8,51.7-29.6,107.1-14.6,162.3c6.7,24.5,17.8,64.3,41.1,78c32.9,19.3,69.6,9.6,98.4-11.4
			c61.3-44.8,89.9-122.5,109.7-192.9C2766.2,1125.9,2801.7,1130.5,2798,1149.3z M2547.6,1062c0,0.5,0.1,1,0.2,1.5
			c1.4,38.4,46.1,34.8,65.6,17.1c19.2-17.4,31.5-67.5-10.3-66.9C2578.1,1014.2,2560.2,1038.5,2547.6,1062z"/>
	</g>
	<g>
		<path d="M1223.2,858.7c-8.1,32.9-45.1,44.2-45.5,73.8c-2.8,13.9-42.8,13-41.4-3.6c2.1-26.1,19.7-24.3,29.3-46.5
			c8.2-19,14.5-27.7,0.1-45.5c-8.3-10.3-22.4-10-34.3-5.1c-6.1,2.5-12.2-8.7-6.1-14.1c7.5-6.7,46.3-14.7,61.1-10.6
			C1216.6,815.5,1226.4,845.7,1223.2,858.7z"/>
	</g>
	<g>
		<path d="M1362.7,968.6c15.8,19.3,28.2,32.3,21.6,56.3c-14.5,53.1-107.5,16.7-139.7,6c-7.9-2.6,0.2-19,8.5-16.3
			c18.1,5.9,27.4,9.8,46,13.9c10,2.2,39.1,0.3,17.9-22.4c-6.9-7.4-14.9-15.4-27-24.1c-16.7-12.2,21.8-45.5,41.3-37.1
			C1331.9,945.1,1348.2,952.9,1362.7,968.6z"/>
	</g>
</g>
</svg>
