<?xml version="1.0" encoding="utf-8"?>
<svg version="1.1" id="Layer_1" xmlns="http://www.w3.org/2000/svg" xmlns:xlink="http://www.w3.org/1999/xlink" x="0px" y="0px"
	 viewBox="0 0 1500 1500" style="enable-background:new 0 0 1500 1500;" xml:space="preserve">
<g>
	<path d="M177.7,1449.2v-192.9h65.2c31.7,0,55.7,5.2,71.8,15.5c16.1,10.4,24.2,25.6,24.2,45.8c0,14-3.5,25.9-10.5,35.7
		c-7,9.8-16.8,17.3-29.5,22.4c-12.7,5.1-27.6,7.7-44.8,7.7h-14.6v65.8H177.7z M251.6,1344.5c9.9,0,17.5-2.1,23-6.2
		c5.4-4.1,8.1-10.3,8.1-18.5c0-7.7-2.6-13.4-7.8-17.2c-5.2-3.8-12.8-5.7-22.7-5.7h-12.6v47.6H251.6z"/>
	<path d="M360.2,1449.2v-184.5l59.1-8.7v81.8c3.9-9.7,10.1-17.3,18.5-22.7c8.4-5.4,18.5-8.1,30.2-8.1c18.3,0,32.5,6.3,42.6,18.9
		c10.1,12.6,15.1,30.4,15.1,53.3v70h-59.1v-73.1c0-16.6-6.7-24.9-20.2-24.9c-8,0-14.6,2.9-19.6,8.8s-7.6,13.8-7.6,23.7v65.5H360.2z"
		/>
	<path d="M626,1451.5c-15.9,0-29.9-3.1-42-9.2c-12.1-6.2-21.6-14.7-28.4-25.6c-6.8-10.9-10.2-23.5-10.2-37.7
		c0-14.6,3.5-27.2,10.5-37.9c7-10.7,16.6-19.1,28.7-25.1c12.1-6,26-9,41.7-9c7.7,0,13.8,0.5,18.3,1.4c4.6,0.9,9.3,1.4,14.1,1.4
		c5.2,0,9.3-0.5,12.3-1.5c3-1,5.1-3.5,6.4-7.3c1.3-3.8,2-9.8,2-18.1h32.8c0,14.9-1.7,26.3-5.2,34.2c-3.5,7.8-9.5,12.9-18.1,15.1
		c6.3,7.3,10.9,14.7,13.7,22.4c2.8,7.7,4.2,15.8,4.2,24.4c0,14.4-3.4,27-10.2,37.9c-6.8,10.9-16.3,19.4-28.4,25.5
		C656.1,1448.4,642,1451.5,626,1451.5z M609.2,1290.7c-0.2-1.5-0.4-2.9-0.6-4.3c-0.2-1.4-0.3-3.2-0.3-5.5c0-4.5,1-8,2.9-10.6
		c2-2.6,4.2-4.9,6.6-6.9c2.4-2,4.6-4,6.6-6c2-2.1,2.9-4.6,2.9-7.6c0-2.1-0.9-3.7-2.7-5c-1.8-1.3-4.7-2-8.8-2c-3,0-6.1,0.4-9.2,1.1
		c-3.2,0.7-6.6,1.8-10.4,3.1l-2.2-23.2c4.9-1.7,10.3-3,16.2-4.1c6-1,12-1.5,18.2-1.5c13.6,0,23.2,2.4,28.8,7.1
		c5.6,4.8,8.4,10.8,8.4,18.1c0,6-1.1,10.8-3.4,14.4c-2.2,3.6-4.9,6.7-7.8,9.2c-3,2.5-5.6,5.2-7.8,8c-2.2,2.8-3.4,6.4-3.4,10.9v4.8
		H609.2z M626.5,1409.5c7.7,0,14-2.8,18.9-8.5c4.9-5.7,7.4-13,7.4-22s-2.4-16.3-7.3-22c-4.9-5.7-11-8.5-18.5-8.5
		c-8,0-14.5,2.8-19.5,8.5c-4.9,5.7-7.4,13-7.4,22s2.5,16.3,7.4,22C612.6,1406.6,618.9,1409.5,626.5,1409.5z"/>
	<path d="M801.5,1451.5c-15.9,0-29.9-3.1-42-9.2c-12.1-6.2-21.6-14.7-28.4-25.6c-6.8-10.9-10.2-23.5-10.2-37.7
		c0-14.6,3.5-27.2,10.5-37.9c7-10.7,16.6-19.1,28.7-25.1c12.1-6,26-9,41.7-9c16.1,0,30.1,3,42.3,9.1c12.1,6.1,21.6,14.5,28.3,25.2
		c6.7,10.7,10.1,23.3,10.1,37.7c0,14.4-3.4,27-10.2,37.9c-6.8,10.9-16.3,19.4-28.4,25.5C831.7,1448.4,817.6,1451.5,801.5,1451.5z
		 M802.1,1409.5c7.7,0,14-2.8,18.9-8.5c4.9-5.7,7.4-13,7.4-22s-2.4-16.3-7.3-22c-4.9-5.7-11-8.5-18.5-8.5c-8,0-14.5,2.8-19.5,8.5
		c-4.9,5.7-7.4,13-7.4,22s2.5,16.3,7.4,22C788.1,1406.6,794.4,1409.5,802.1,1409.5z"/>
	<path d="M965.3,1451.5c-12.9,0-24.5-3.1-35-9.4c-10.5-6.3-18.7-14.9-24.8-25.9c-6.1-11-9.1-23.6-9.1-37.8c0-14.2,3-26.6,9.1-37.2
		c6.1-10.6,14.3-19,24.8-25.1c10.5-6.1,22.1-9.1,35-9.1c9.1,0,18,2.5,26.5,7.4c8.5,4.9,14.8,12.9,18.9,23.9v-73.6l59.1-8.7v193.2
		h-58.5v-26c-4.5,9.1-10.5,16.1-17.9,21C985.9,1449,976.5,1451.5,965.3,1451.5z M983.5,1407.2c7.7,0,14.2-2.8,19.6-8.3
		c5.4-5.5,8.1-12.3,8.1-20.3c0-8-2.7-14.6-8.1-19.7c-5.4-5.1-11.9-7.7-19.6-7.7c-8,0-14.7,2.7-20.2,8.1c-5.4,5.4-8.1,12-8.1,19.9
		s2.7,14.5,8.1,19.9C968.8,1404.5,975.5,1407.2,983.5,1407.2z"/>
	<path d="M1126.6,1293.5c-8.6,0-16-2.8-22.1-8.3c-6.2-5.5-9.2-12.3-9.2-20.3c0-5.6,1.5-10.5,4.5-14.7c3-4.2,6.9-7.5,11.8-9.9
		c4.9-2.4,9.9-3.6,15.1-3.6c5.8,0,11.1,1.3,15.8,3.9c4.8,2.6,8.6,6.1,11.5,10.4c2.9,4.3,4.3,9,4.3,14c0,5.6-1.5,10.5-4.6,14.8
		c-3.1,4.3-7,7.7-11.8,10.1C1137.1,1292.3,1132,1293.5,1126.6,1293.5z M1149.6,1451.5c-12.5,0-22.6-2.2-30.4-6.7
		c-7.7-4.5-13.4-10.5-16.9-18.2c-3.5-7.7-5.3-16.2-5.3-25.8v-91.8h59.1v83.7c0,4.3,1.3,7.6,3.8,9.9c2.5,2.3,5.6,3.5,9.1,3.5
		c3.7,0,7.6-1.1,11.5-3.4l3.1,38.9c-4.1,3.2-9.4,5.6-16,7.3C1160.9,1450.6,1155,1451.5,1149.6,1451.5z"/>
	<path d="M1283.4,1412.3c5.4,0,11.2-0.6,17.2-1.7c6.1-1.1,12.3-3.2,18.6-6.2l6.7,36.1c-6.9,3.5-14.4,6.3-22.5,8.1
		c-8.1,1.9-17.4,2.8-27.9,2.8c-18.9,0-34.7-3.1-47.5-9.2c-12.8-6.2-22.4-14.7-29-25.5c-6.5-10.8-9.8-23.3-9.8-37.5
		c0-14.6,3.5-27.3,10.5-38.1c7-10.8,16.4-19.2,28.1-25.2c11.8-6,24.7-9,38.9-9c21.1,0,37.2,6.6,48.4,19.7s16.8,31.9,16.8,56.1
		l-83.4,10.6C1254.8,1406,1266.4,1412.3,1283.4,1412.3z M1244.2,1367.7l44-9.2c-0.7-6-2.8-10.4-6.2-13.3c-3.4-2.9-7.6-4.3-12.6-4.3
		c-7.5,0-13.4,2.6-17.8,7.7C1247.2,1353.7,1244.8,1360.1,1244.2,1367.7z"/>
</g>
<g>
	<path d="M1089.7,273.7c23.6,108.7-15.7,221.9-91.3,301.8C897.4,682.4,753.3,727.1,610,737.7c5.6,126.3,16.6,252.3,38,377.4
		c4.9,28.6-40.1,41.8-59.8,41.8c-27.6,0-54.9-13.2-59.8-41.8c-22.9-133.7-33.2-269.5-39.1-404.9c-6.6-152.1-9.3-305.8-1.7-457.9
		c2.8-54.7,116.3-54.7,116.4,0c0.3,133.3-0.7,267,3,400.5c119.3-9.9,239-53,312.7-152c48.4-65,69.9-153.8,45.2-232
		c-29.5-93.2-126-165.5-222.6-181.7c-99.4-16.6-211.2,21.1-274.1,100.4C379.2,299.4,415,450.7,466,570.6c8.7,20.4-34,25.6-42.1,8.1
		C358,436.5,331,254,458.6,137.2c37.8-34.6,83.9-58.9,133.1-72.8c26.3-7.4,52.8-11.2,80.1-13c44.7-2.9,94.4-4.8,138.7,1.3
		c76.9,10.5,155.1,33.2,210.6,91C1055.3,179.3,1079.2,225.5,1089.7,273.7z"/>
</g>
</svg>
