<?xml version="1.0" encoding="utf-8"?>
<!-- Generator: Adobe Illustrator 28.0.0, SVG Export Plug-In . SVG Version: 6.00 Build 0)  -->
<svg version="1.1" id="Layer_1" xmlns="http://www.w3.org/2000/svg" xmlns:xlink="http://www.w3.org/1999/xlink" x="0px" y="0px"
	 viewBox="0 0 25 25" style="enable-background:new 0 0 25 25;" xml:space="preserve">
<style type="text/css">
	.st0{fill:#231F20;}
</style>
<g id="calendar_add">
	<path class="st0" d="M16.6,8.7h-0.6V8.2c0-0.2-0.2-0.4-0.4-0.4h-0.4c-0.2,0-0.4,0.2-0.4,0.4v0.4h-1.6V8.2c0-0.2-0.2-0.4-0.4-0.4
		h-0.4c-0.2,0-0.4,0.2-0.4,0.4v0.4h-1.6V8.2c0-0.2-0.2-0.4-0.4-0.4H9.5C9.2,7.8,9.1,8,9.1,8.2v0.4H8.4c-0.3,0-0.6,0.3-0.6,0.6v7.3
		c0,0.3,0.3,0.6,0.6,0.6h8.1c0.3,0,0.6-0.3,0.6-0.6V9.3C17.2,8.9,16.9,8.7,16.6,8.7z M15.1,8.2h0.4v1.2h-0.4V8.2z M12.3,8.2h0.4v0.6
		c0,0,0,0,0,0c0,0,0,0,0,0v0.6h-0.4V8.2z M9.5,8.2h0.4v1.2H9.5V8.2z M8.4,9.1h0.6v0.4c0,0.2,0.2,0.4,0.4,0.4h0.4
		c0.2,0,0.4-0.2,0.4-0.4V9.1h1.6v0.4c0,0.2,0.2,0.4,0.4,0.4h0.4c0.2,0,0.4-0.2,0.4-0.4V9.1h1.6v0.4c0,0.2,0.2,0.4,0.4,0.4h0.4
		c0.2,0,0.4-0.2,0.4-0.4V9.1h0.6c0.1,0,0.2,0.1,0.2,0.2v1.4H8.2V9.3C8.2,9.1,8.3,9.1,8.4,9.1z M16.6,16.8H8.4
		c-0.1,0-0.2-0.1-0.2-0.2v-5.5h8.5v5.5C16.8,16.7,16.7,16.8,16.6,16.8z"/>
	<path class="st0" d="M13.9,13.7h-1.2v-1.2c0-0.1-0.1-0.2-0.2-0.2s-0.2,0.1-0.2,0.2v1.2h-1.2c-0.1,0-0.2,0.1-0.2,0.2
		s0.1,0.2,0.2,0.2h1.2v1.2c0,0.1,0.1,0.2,0.2,0.2s0.2-0.1,0.2-0.2v-1.2h1.2c0.1,0,0.2-0.1,0.2-0.2S14,13.7,13.9,13.7z"/>
</g>
</svg>
