<?xml version="1.0" encoding="utf-8"?>
<svg viewBox="0 0 500 500" xmlns="http://www.w3.org/2000/svg">
  <path d="M 233.557 438.426 L 232.931 438.426 L 233.557 438.426 Z M 275.353 283.804 C 281.196 287.56 287.038 289.438 292.881 289.438 C 302.48 289.438 310.826 284.952 317.921 275.979 C 325.016 267.006 330.754 256.364 335.136 244.053 C 339.518 231.742 342.752 219.326 344.839 206.806 C 346.926 194.286 347.969 184.27 347.969 176.758 C 347.969 163.821 346.195 150.362 342.648 136.381 C 339.101 122.4 333.154 110.193 324.807 99.76 C 331.484 110.611 336.388 122.192 339.518 134.503 C 342.648 146.814 344.213 159.23 344.213 171.75 C 344.213 185.522 342.231 199.398 338.266 213.379 C 334.301 227.36 327.102 239.149 316.669 248.748 C 315.834 249.583 314.791 250.522 313.539 251.565 C 312.287 252.608 310.826 253.339 309.157 253.756 L 309.157 253.13 C 310.826 251.878 312.496 250.73 314.165 249.687 C 315.834 248.644 317.295 247.287 318.547 245.618 C 322.303 241.862 325.537 236.958 328.25 230.907 C 330.963 224.856 333.362 218.491 335.449 211.814 C 337.536 205.137 339.101 198.355 340.144 191.469 C 341.187 184.583 341.709 178.636 341.709 173.628 C 341.709 163.195 340.457 152.24 337.953 140.763 C 335.449 129.286 331.484 118.853 326.059 109.463 C 320.634 100.073 313.539 92.352 304.775 86.301 C 296.011 80.25 285.369 77.224 272.849 77.224 C 253.234 77.224 236.437 82.962 222.456 94.439 C 208.475 105.916 196.999 120.105 188.026 137.007 C 179.053 153.909 172.48 172.167 168.307 191.782 C 164.134 211.397 162.047 229.133 162.047 244.992 C 162.047 252.921 162.986 262.311 164.864 273.162 C 166.742 284.013 170.185 292.568 175.193 298.828 C 171.854 296.324 169.037 292.359 166.742 286.934 C 164.447 281.509 162.673 275.562 161.421 269.093 C 160.169 262.624 159.334 256.26 158.917 250 C 158.5 243.74 158.291 238.732 158.291 234.976 C 158.291 211.188 161.63 188.861 168.307 167.994 C 174.984 147.127 185.835 127.304 200.859 108.524 C 192.93 116.871 186.044 126.469 180.201 137.32 C 174.358 148.171 169.455 159.439 165.49 171.124 C 161.525 182.809 158.5 194.808 156.413 207.119 C 154.326 219.43 153.283 231.22 153.283 242.488 C 153.283 254.591 154.535 267.215 157.039 280.361 C 159.543 293.507 163.09 305.505 167.681 316.356 L 168.933 318.86 L 165.803 318.86 C 157.456 318.86 150.362 316.878 144.519 312.913 C 138.676 308.948 134.086 303.94 130.747 297.889 C 127.408 291.838 125.009 285.056 123.548 277.544 C 122.087 270.032 121.357 262.729 121.357 255.634 C 121.357 236.019 123.652 216.092 128.243 195.851 C 132.834 175.61 139.928 156.517 149.527 138.572 C 159.126 120.627 171.228 104.872 185.835 91.309 C 200.442 77.746 217.97 67.625 238.419 60.948 C 210.04 68.46 187.087 82.441 169.559 102.89 C 152.031 123.339 138.259 146.501 128.243 172.376 C 121.983 188.652 116.871 206.597 112.906 226.212 C 108.941 245.827 107.376 264.398 108.211 281.926 C 108.211 278.17 107.898 274.414 107.272 270.658 C 106.646 266.902 106.333 263.146 106.333 259.39 C 106.333 236.019 110.193 211.918 117.914 187.087 C 125.635 162.256 136.798 139.511 151.405 118.853 C 166.012 98.195 183.748 81.189 204.615 67.834 C 225.482 54.479 249.061 47.802 275.353 47.802 C 293.716 47.802 310.2 51.245 324.807 58.131 C 339.414 65.017 351.829 74.407 362.054 86.301 C 372.279 98.195 380.104 111.967 385.529 127.617 C 390.954 143.267 393.667 159.856 393.667 177.384 C 393.667 190.321 392.102 204.406 388.972 219.639 C 385.842 234.872 380.834 248.957 373.948 261.894 C 367.062 274.831 357.985 285.578 346.717 294.133 C 335.449 302.688 321.886 306.966 306.027 306.966 C 303.523 306.966 300.393 306.757 296.637 306.34 C 292.881 305.923 289.334 305.088 285.995 303.836 C 282.656 302.584 279.839 300.81 277.544 298.515 C 275.249 296.22 274.101 293.194 274.101 289.438 C 274.101 288.186 274.518 286.308 275.353 283.804 Z M 276.125 116.036 C 276.125 124.383 275.29 132.521 273.621 140.45 C 271.952 148.379 270.7 156.517 269.865 164.864 C 265.274 201.172 261.101 237.271 257.345 273.162 C 253.589 309.053 251.711 345.361 251.711 382.086 C 251.711 387.511 251.815 393.98 252.024 401.492 C 252.233 409.004 253.172 415.055 254.841 419.646 C 251.502 413.803 249.416 405.352 248.581 394.293 C 247.746 383.234 247.329 374.157 247.329 367.062 C 247.329 357.463 247.642 347.969 248.268 338.579 C 248.894 329.189 249.624 319.695 250.459 310.096 C 253.38 280.048 256.197 250.417 258.91 221.204 C 261.623 191.991 264.648 162.36 267.987 132.312 C 262.144 176.132 255.989 219.639 249.52 262.833 C 243.051 306.027 239.817 349.743 239.817 393.98 C 239.817 397.736 239.921 402.014 240.13 406.813 C 240.339 411.612 240.86 416.516 241.695 421.524 C 242.53 426.532 243.677 431.227 245.138 435.609 C 246.599 439.991 248.79 443.643 251.711 446.564 C 250.459 449.485 246.703 451.155 240.443 451.572 C 234.183 451.989 229.801 452.198 227.297 452.198 C 209.769 452.198 197.249 446.877 189.737 436.235 C 182.225 425.593 178.469 412.343 178.469 396.484 C 178.469 383.964 179.617 371.548 181.912 359.237 C 184.207 346.926 186.398 334.719 188.485 322.616 C 186.816 334.719 185.355 346.926 184.103 359.237 C 182.851 371.548 182.225 383.755 182.225 395.858 C 182.225 402.535 182.955 409.734 184.416 417.455 C 185.877 425.176 189.737 430.914 195.997 434.67 C 193.076 429.245 191.198 423.506 190.363 417.455 C 189.528 411.404 189.111 405.457 189.111 399.614 C 189.111 388.346 189.841 377.078 191.302 365.81 C 192.763 354.542 194.536 343.274 196.623 332.006 C 202.466 294.863 208.204 257.825 213.838 220.891 C 219.472 183.957 224.167 146.71 227.923 109.15 C 224.584 128.347 221.454 147.545 218.533 166.742 C 215.612 185.939 212.482 205.137 209.143 224.334 C 207.891 232.263 206.848 240.401 206.013 248.748 C 205.178 257.095 203.509 265.024 201.005 272.536 C 205.596 242.905 209.769 213.483 213.525 184.27 C 217.281 155.057 221.246 125.635 225.419 96.004 C 226.254 96.004 226.88 95.9 227.297 95.691 C 227.714 95.482 228.34 95.587 229.175 96.004 C 231.679 95.587 234.287 95.274 237 95.065 C 239.713 94.856 242.321 94.752 244.825 94.752 C 251.502 94.752 258.388 96.213 265.483 99.134 C 272.578 102.055 276.125 107.689 276.125 116.036 Z M 193.493 393.354 C 193.493 396.693 193.806 401.283 194.432 407.126 C 195.058 412.969 196.31 418.707 198.188 424.341 C 200.066 429.975 202.466 434.774 205.387 438.739 C 208.308 442.704 212.273 444.686 217.281 444.686 C 218.116 444.686 219.576 444.373 221.663 443.747 C 223.75 443.121 224.793 442.391 224.793 441.556 C 224.793 440.721 223.541 438.635 221.037 435.296 C 218.533 431.957 216.864 429.871 216.029 429.036 C 214.777 426.532 213.629 422.776 212.586 417.768 C 211.543 412.76 210.708 407.439 210.082 401.805 C 209.456 396.171 209.039 390.641 208.83 385.216 C 208.621 379.791 208.517 375.617 208.517 372.696 C 208.517 352.664 209.873 332.736 212.586 312.913 C 215.299 293.09 218.95 273.371 223.541 253.756 C 218.533 274.623 214.36 295.594 211.021 316.669 C 207.682 337.744 206.013 358.924 206.013 380.208 C 206.013 384.381 206.117 389.181 206.326 394.606 C 206.535 400.031 207.161 405.457 208.204 410.882 C 209.247 416.307 210.604 421.524 212.273 426.532 C 213.942 431.54 216.446 435.505 219.785 438.426 C 216.446 437.174 213.734 434.461 211.647 430.288 C 209.56 426.115 207.787 421.524 206.326 416.516 C 204.865 411.508 203.822 406.5 203.196 401.492 C 202.57 396.484 202.257 392.519 202.257 389.598 C 202.257 373.322 203.405 357.046 205.7 340.77 C 207.995 324.494 210.186 308.218 212.273 291.942 C 216.029 265.233 220.098 238.628 224.48 212.127 C 228.862 185.626 233.348 159.021 237.939 132.312 C 233.766 154.848 229.697 177.175 225.732 199.294 C 221.767 221.413 217.907 243.74 214.151 266.276 C 210.395 287.977 207.056 309.783 204.135 331.693 C 201.214 353.603 199.753 375.617 199.753 397.736 C 199.753 402.744 199.962 407.126 200.379 410.882 C 200.796 414.638 201.422 418.081 202.257 421.211 C 203.092 424.341 204.448 427.575 206.326 430.914 C 208.204 434.253 210.604 438.009 213.525 442.182 C 210.186 440.095 207.474 436.757 205.387 432.166 C 203.3 427.575 201.631 422.672 200.379 417.455 C 199.127 412.238 198.188 407.126 197.562 402.118 C 196.936 397.11 196.623 392.728 196.623 388.972 C 196.623 367.271 198.188 345.778 201.318 324.494 C 204.448 303.21 207.682 281.926 211.021 260.642 C 208.517 273.997 206.222 287.56 204.135 301.332 C 202.048 315.104 200.17 328.876 198.501 342.648 C 197.666 350.995 196.623 359.446 195.371 368.001 C 194.119 376.556 193.493 385.007 193.493 393.354 Z M 305.401 291.316 C 315.417 286.308 323.764 279.318 330.441 270.345 C 337.118 261.372 342.335 251.356 346.091 240.297 C 349.847 229.238 352.455 217.865 353.916 206.18 C 355.377 194.495 356.107 183.644 356.107 173.628 C 356.107 160.691 354.646 147.962 351.725 135.442 C 348.804 122.922 344.109 111.863 337.64 102.264 C 331.171 92.665 322.825 84.84 312.6 78.789 C 302.375 72.738 289.751 69.712 274.727 69.712 C 273.475 69.712 272.327 69.816 271.284 70.025 C 270.241 70.234 269.093 70.338 267.841 70.338 C 279.526 69.503 291.212 71.799 302.897 77.224 C 314.582 82.649 324.181 89.744 331.693 98.508 C 339.622 108.107 345.152 120.418 348.282 135.442 C 351.412 150.466 352.977 164.029 352.977 176.132 C 352.977 185.731 352.247 196.164 350.786 207.432 C 349.325 218.7 346.717 229.655 342.961 240.297 C 339.205 250.939 334.301 260.746 328.25 269.719 C 322.199 278.692 314.582 285.891 305.401 291.316 Z M 310.409 290.064 C 314.582 288.812 318.756 286.412 322.929 282.865 C 327.102 279.318 330.963 275.144 334.51 270.345 C 338.057 265.546 341.292 260.538 344.213 255.321 C 347.134 250.104 349.43 245.618 351.099 241.862 C 360.28 220.578 364.871 197.625 364.871 173.002 C 364.871 170.498 364.871 167.994 364.871 165.49 C 364.871 162.986 364.662 160.482 364.245 157.978 C 364.245 170.498 363.41 182.809 361.741 194.912 C 360.072 207.015 356.942 218.909 352.351 230.594 C 350.682 234.767 348.386 239.984 345.465 246.244 C 342.544 252.504 339.205 258.66 335.449 264.711 C 331.693 270.762 327.624 276.188 323.242 280.987 C 318.86 285.786 314.582 288.812 310.409 290.064 Z M 162.673 315.104 C 157.665 306.34 154.013 295.802 151.718 283.491 C 149.423 271.18 148.275 260.016 148.275 250 C 148.275 236.645 149.423 223.604 151.718 210.875 C 154.013 198.146 156.83 185.522 160.169 173.002 C 155.996 185.105 152.657 197.833 150.153 211.188 C 147.649 224.543 146.397 237.48 146.397 250 C 146.397 254.591 146.71 259.912 147.336 265.963 C 147.962 272.014 148.901 278.066 150.153 284.117 C 151.405 290.168 153.074 295.907 155.161 301.332 C 157.248 306.757 159.752 311.348 162.673 315.104 Z M 269.239 124.8 L 269.865 121.67 C 269.448 122.505 269.239 123.548 269.239 124.8 Z M 189.737 318.234 L 189.111 319.486 C 189.111 319.069 189.32 318.651 189.737 318.234 Z M 211.021 260.642 L 212.273 255.008 L 211.021 260.642 Z M 267.987 132.312 L 269.239 124.8 L 267.987 132.312 Z M 270.491 117.914 C 270.074 118.331 269.865 119.583 269.865 121.67 L 270.491 117.914 Z" style=""/>
</svg>