<?xml version="1.0" encoding="utf-8"?>
<!-- Generator: Adobe Illustrator 28.0.0, SVG Export Plug-In . SVG Version: 6.00 Build 0)  -->
<svg version="1.1" id="Layer_1" xmlns="http://www.w3.org/2000/svg" xmlns:xlink="http://www.w3.org/1999/xlink" x="0px" y="0px"
	 viewBox="0 0 1500 1500" style="enable-background:new 0 0 1500 1500;" xml:space="preserve">
<style type="text/css">
	.st0{fill:#FFFFFF;}
</style>
<circle class="st0" cx="750" cy="750" r="750"/>
<g>
	<path d="M1107.1,420.9c23.6,108.7-15.7,221.9-91.3,301.8c-101,106.9-245.1,151.6-388.4,162.2c5.6,126.3,16.6,252.3,38,377.4
		c4.9,28.6-40.1,41.8-59.8,41.8c-27.6,0-54.9-13.2-59.8-41.8c-22.9-133.7-33.2-269.5-39.1-404.9c-6.6-152.1-9.3-305.8-1.7-457.9
		c2.8-54.7,116.3-54.7,116.4,0c0.3,133.3-0.7,267,3,400.5c119.3-9.9,239-53,312.7-152c48.4-65,69.9-153.8,45.2-232
		c-29.5-93.2-126-165.5-222.6-181.7c-99.4-16.6-211.2,21.1-274.1,100.4c-89,111.9-53.2,263.2-2.2,383.1c8.7,20.4-34,25.6-42.1,8.1
		c-65.9-142.2-92.9-324.7,34.7-441.5c37.8-34.6,83.9-58.9,133.1-72.8c26.3-7.4,52.8-11.2,80.1-13c44.7-2.9,94.4-4.8,138.7,1.3
		c76.9,10.5,155.1,33.2,210.6,91C1072.7,326.5,1096.6,372.7,1107.1,420.9z"/>
</g>
</svg>
